<mxfile host="app.diagrams.net" agent="Mozilla/5.0 (Windows NT 10.0; Win64; x64) AppleWebKit/537.36 (KHTML, like Gecko) Chrome/139.0.0.0 Safari/537.36 Edg/139.0.0.0" version="28.1.0">
  <diagram name="第 1 页" id="yrWt0ny3kERoiDL8ePUC">
    <mxGraphModel dx="1097" dy="684" grid="1" gridSize="10" guides="1" tooltips="1" connect="1" arrows="1" fold="1" page="1" pageScale="1" pageWidth="827" pageHeight="1169" math="1" shadow="0">
      <root>
        <mxCell id="0" />
        <mxCell id="1" parent="0" />
        <mxCell id="34jZ-r2ggN83q7WSebQB-1" value="A型振动抑制分析" style="text;html=1;align=center;verticalAlign=middle;whiteSpace=wrap;rounded=0;fontSize=26;fontFamily=Comic Sans MS;fontColor=#3333FF;fontStyle=1" vertex="1" parent="1">
          <mxGeometry x="250" y="40" width="280" height="60" as="geometry" />
        </mxCell>
        <mxCell id="34jZ-r2ggN83q7WSebQB-2" value="&lt;p style=&quot;margin: 0in;&quot;&gt;&lt;span style=&quot;font-family:Calibri&quot;&gt;&lt;span style=&quot;white-space: pre;&quot;&gt;&#x9;&lt;/span&gt;A&lt;/span&gt;&lt;span style=&quot;font-family:&amp;quot;Microsoft YaHei&amp;quot;&quot;&gt;型抑振控制功能可有效抑制在提高控制增益时发生的&lt;/span&gt;&lt;span style=&quot;font-family:Calibri&quot;&gt;100 Hz~1000 Hz&lt;/span&gt;&lt;span style=&quot;font-family:&amp;quot;Microsoft YaHei&amp;quot;&quot;&gt;左右的持续振动。&lt;/span&gt;&lt;/p&gt;&lt;p style=&quot;margin: 0in;&quot;&gt;&lt;br&gt;&lt;/p&gt;" style="text;html=1;align=left;verticalAlign=middle;whiteSpace=wrap;rounded=0;fontSize=16;" vertex="1" parent="1">
          <mxGeometry x="20" y="120" width="800" height="60" as="geometry" />
        </mxCell>
        <mxCell id="34jZ-r2ggN83q7WSebQB-3" value="&lt;p style=&quot;margin: 0in;&quot;&gt;&lt;font face=&quot;Comic Sans MS&quot;&gt;&lt;span style=&quot;white-space: pre;&quot;&gt;&#x9;&lt;/span&gt;常规模型电机负载模型可以看做是一个双惯量振动模型，包括了刚性部分和振动部分。观测器只选取刚性部分，忽略摩擦、扰动。实际速度减去观测速度就是振动部分速度。&lt;span style=&quot;background-color: transparent; color: light-dark(rgb(0, 0, 0), rgb(255, 255, 255));&quot;&gt;通过一阶低通滤波器，高通滤波器&lt;/span&gt;&lt;span style=&quot;background-color: transparent; color: light-dark(rgb(0, 0, 0), rgb(255, 255, 255));&quot;&gt;以及比例控制部分整形调节输出给反馈速度相加，从而消除振动部分。&lt;/span&gt;&lt;/font&gt;&lt;/p&gt;" style="text;html=1;align=left;verticalAlign=middle;whiteSpace=wrap;rounded=0;fontSize=16;" vertex="1" parent="1">
          <mxGeometry x="30" y="170" width="700" height="70" as="geometry" />
        </mxCell>
        <mxCell id="34jZ-r2ggN83q7WSebQB-20" value="Spdref" style="text;html=1;align=center;verticalAlign=middle;whiteSpace=wrap;rounded=0;fontSize=12;" vertex="1" parent="1">
          <mxGeometry x="40" y="340" width="70" height="30" as="geometry" />
        </mxCell>
        <mxCell id="34jZ-r2ggN83q7WSebQB-24" value="+" style="text;html=1;align=center;verticalAlign=middle;whiteSpace=wrap;rounded=0;fontSize=20;" vertex="1" parent="1">
          <mxGeometry x="115.75" y="354" width="24.25" height="20" as="geometry" />
        </mxCell>
        <mxCell id="34jZ-r2ggN83q7WSebQB-28" value="" style="group" vertex="1" connectable="0" parent="1">
          <mxGeometry x="150" y="365" width="20" height="20" as="geometry" />
        </mxCell>
        <mxCell id="34jZ-r2ggN83q7WSebQB-29" value="" style="ellipse;whiteSpace=wrap;html=1;aspect=fixed;" vertex="1" parent="34jZ-r2ggN83q7WSebQB-28">
          <mxGeometry width="20" height="20" as="geometry" />
        </mxCell>
        <mxCell id="34jZ-r2ggN83q7WSebQB-30" value="" style="endArrow=none;html=1;rounded=0;entryX=1;entryY=1;entryDx=0;entryDy=0;exitX=0;exitY=0;exitDx=0;exitDy=0;" edge="1" parent="34jZ-r2ggN83q7WSebQB-28" source="34jZ-r2ggN83q7WSebQB-29" target="34jZ-r2ggN83q7WSebQB-29">
          <mxGeometry width="50" height="50" relative="1" as="geometry">
            <mxPoint x="-19.99000000000001" as="sourcePoint" />
            <mxPoint x="30.00999999999999" y="-50" as="targetPoint" />
          </mxGeometry>
        </mxCell>
        <mxCell id="34jZ-r2ggN83q7WSebQB-31" value="" style="endArrow=none;html=1;rounded=0;entryX=0;entryY=1;entryDx=0;entryDy=0;exitX=1;exitY=0;exitDx=0;exitDy=0;" edge="1" parent="34jZ-r2ggN83q7WSebQB-28" source="34jZ-r2ggN83q7WSebQB-29" target="34jZ-r2ggN83q7WSebQB-29">
          <mxGeometry width="50" height="50" relative="1" as="geometry">
            <mxPoint x="-10" y="-10" as="sourcePoint" />
            <mxPoint x="29.99000000000001" y="-10" as="targetPoint" />
          </mxGeometry>
        </mxCell>
        <mxCell id="34jZ-r2ggN83q7WSebQB-46" style="edgeStyle=orthogonalEdgeStyle;rounded=0;orthogonalLoop=1;jettySize=auto;html=1;exitX=1;exitY=0.5;exitDx=0;exitDy=0;entryX=0;entryY=0.5;entryDx=0;entryDy=0;" edge="1" parent="1" source="34jZ-r2ggN83q7WSebQB-33" target="34jZ-r2ggN83q7WSebQB-34">
          <mxGeometry relative="1" as="geometry" />
        </mxCell>
        <mxCell id="34jZ-r2ggN83q7WSebQB-33" value="\[\frac{1}{{{T_s}s + 1}}\]" style="rounded=0;whiteSpace=wrap;html=1;fontSize=12;" vertex="1" parent="1">
          <mxGeometry x="390" y="350" width="72.5" height="50" as="geometry" />
        </mxCell>
        <mxCell id="34jZ-r2ggN83q7WSebQB-47" style="edgeStyle=orthogonalEdgeStyle;rounded=0;orthogonalLoop=1;jettySize=auto;html=1;exitX=1;exitY=0.5;exitDx=0;exitDy=0;entryX=0;entryY=0.5;entryDx=0;entryDy=0;" edge="1" parent="1" source="34jZ-r2ggN83q7WSebQB-34" target="34jZ-r2ggN83q7WSebQB-40">
          <mxGeometry relative="1" as="geometry" />
        </mxCell>
        <mxCell id="34jZ-r2ggN83q7WSebQB-34" value="\[\frac{1}{{Js + B}}\]" style="rounded=0;whiteSpace=wrap;html=1;fontSize=12;" vertex="1" parent="1">
          <mxGeometry x="570" y="350" width="70" height="50" as="geometry" />
        </mxCell>
        <mxCell id="34jZ-r2ggN83q7WSebQB-60" style="edgeStyle=orthogonalEdgeStyle;rounded=0;orthogonalLoop=1;jettySize=auto;html=1;exitX=0.5;exitY=1;exitDx=0;exitDy=0;entryX=0.5;entryY=0;entryDx=0;entryDy=0;" edge="1" parent="1" source="34jZ-r2ggN83q7WSebQB-35" target="34jZ-r2ggN83q7WSebQB-53">
          <mxGeometry relative="1" as="geometry" />
        </mxCell>
        <mxCell id="34jZ-r2ggN83q7WSebQB-35" value="\[\frac{1}{J}\]" style="rounded=0;whiteSpace=wrap;html=1;fontSize=12;" vertex="1" parent="1">
          <mxGeometry x="481.25" y="410" width="37.5" height="35" as="geometry" />
        </mxCell>
        <mxCell id="34jZ-r2ggN83q7WSebQB-73" style="edgeStyle=orthogonalEdgeStyle;rounded=0;orthogonalLoop=1;jettySize=auto;html=1;exitX=1;exitY=0.5;exitDx=0;exitDy=0;entryX=0;entryY=0.5;entryDx=0;entryDy=0;" edge="1" parent="1" source="34jZ-r2ggN83q7WSebQB-36" target="34jZ-r2ggN83q7WSebQB-42">
          <mxGeometry relative="1" as="geometry" />
        </mxCell>
        <mxCell id="34jZ-r2ggN83q7WSebQB-36" value="\[\frac{1}{s}\]" style="rounded=0;whiteSpace=wrap;html=1;fontSize=12;" vertex="1" parent="1">
          <mxGeometry x="570" y="460" width="40" height="50" as="geometry" />
        </mxCell>
        <mxCell id="34jZ-r2ggN83q7WSebQB-63" style="edgeStyle=orthogonalEdgeStyle;rounded=0;orthogonalLoop=1;jettySize=auto;html=1;exitX=0;exitY=0.5;exitDx=0;exitDy=0;entryX=0.5;entryY=1;entryDx=0;entryDy=0;" edge="1" parent="1" source="34jZ-r2ggN83q7WSebQB-37" target="34jZ-r2ggN83q7WSebQB-53">
          <mxGeometry relative="1" as="geometry" />
        </mxCell>
        <mxCell id="34jZ-r2ggN83q7WSebQB-37" value="\[{K_s}\]" style="rounded=0;whiteSpace=wrap;html=1;fontSize=12;" vertex="1" parent="1">
          <mxGeometry x="595" y="525" width="40" height="40" as="geometry" />
        </mxCell>
        <mxCell id="34jZ-r2ggN83q7WSebQB-78" style="edgeStyle=orthogonalEdgeStyle;rounded=0;orthogonalLoop=1;jettySize=auto;html=1;exitX=0;exitY=0.5;exitDx=0;exitDy=0;entryX=0.5;entryY=1;entryDx=0;entryDy=0;" edge="1" parent="1" source="34jZ-r2ggN83q7WSebQB-39" target="34jZ-r2ggN83q7WSebQB-75">
          <mxGeometry relative="1" as="geometry">
            <mxPoint x="130" y="540" as="targetPoint" />
          </mxGeometry>
        </mxCell>
        <mxCell id="34jZ-r2ggN83q7WSebQB-39" value="\[{K_d}\]" style="rounded=0;whiteSpace=wrap;html=1;fontSize=12;" vertex="1" parent="1">
          <mxGeometry x="290" y="570" width="40" height="40" as="geometry" />
        </mxCell>
        <mxCell id="34jZ-r2ggN83q7WSebQB-48" style="edgeStyle=orthogonalEdgeStyle;rounded=0;orthogonalLoop=1;jettySize=auto;html=1;exitX=0.5;exitY=1;exitDx=0;exitDy=0;entryX=0.5;entryY=0;entryDx=0;entryDy=0;" edge="1" parent="1" source="34jZ-r2ggN83q7WSebQB-40" target="34jZ-r2ggN83q7WSebQB-42">
          <mxGeometry relative="1" as="geometry" />
        </mxCell>
        <mxCell id="34jZ-r2ggN83q7WSebQB-40" value="M" style="ellipse;whiteSpace=wrap;html=1;aspect=fixed;" vertex="1" parent="1">
          <mxGeometry x="675" y="350" width="50" height="50" as="geometry" />
        </mxCell>
        <mxCell id="34jZ-r2ggN83q7WSebQB-41" value="" style="group" vertex="1" connectable="0" parent="1">
          <mxGeometry x="690" y="475" width="20" height="20" as="geometry" />
        </mxCell>
        <mxCell id="34jZ-r2ggN83q7WSebQB-42" value="" style="ellipse;whiteSpace=wrap;html=1;aspect=fixed;" vertex="1" parent="34jZ-r2ggN83q7WSebQB-41">
          <mxGeometry width="20" height="20" as="geometry" />
        </mxCell>
        <mxCell id="34jZ-r2ggN83q7WSebQB-43" value="" style="endArrow=none;html=1;rounded=0;entryX=1;entryY=1;entryDx=0;entryDy=0;exitX=0;exitY=0;exitDx=0;exitDy=0;" edge="1" parent="34jZ-r2ggN83q7WSebQB-41" source="34jZ-r2ggN83q7WSebQB-42" target="34jZ-r2ggN83q7WSebQB-42">
          <mxGeometry width="50" height="50" relative="1" as="geometry">
            <mxPoint x="-19.99000000000001" as="sourcePoint" />
            <mxPoint x="30.00999999999999" y="-50" as="targetPoint" />
          </mxGeometry>
        </mxCell>
        <mxCell id="34jZ-r2ggN83q7WSebQB-44" value="" style="endArrow=none;html=1;rounded=0;entryX=0;entryY=1;entryDx=0;entryDy=0;exitX=1;exitY=0;exitDx=0;exitDy=0;" edge="1" parent="34jZ-r2ggN83q7WSebQB-41" source="34jZ-r2ggN83q7WSebQB-42" target="34jZ-r2ggN83q7WSebQB-42">
          <mxGeometry width="50" height="50" relative="1" as="geometry">
            <mxPoint x="-10" y="-10" as="sourcePoint" />
            <mxPoint x="29.99000000000001" y="-10" as="targetPoint" />
          </mxGeometry>
        </mxCell>
        <mxCell id="34jZ-r2ggN83q7WSebQB-59" style="edgeStyle=orthogonalEdgeStyle;rounded=0;orthogonalLoop=1;jettySize=auto;html=1;entryX=0.5;entryY=0;entryDx=0;entryDy=0;" edge="1" parent="1" source="34jZ-r2ggN83q7WSebQB-45" target="34jZ-r2ggN83q7WSebQB-35">
          <mxGeometry relative="1" as="geometry" />
        </mxCell>
        <mxCell id="34jZ-r2ggN83q7WSebQB-45" value="" style="shape=waypoint;sketch=0;fillStyle=solid;size=6;pointerEvents=1;points=[];fillColor=none;resizable=0;rotatable=0;perimeter=centerPerimeter;snapToPoint=1;" vertex="1" parent="1">
          <mxGeometry x="490" y="365" width="20" height="20" as="geometry" />
        </mxCell>
        <mxCell id="34jZ-r2ggN83q7WSebQB-52" value="" style="group" vertex="1" connectable="0" parent="1">
          <mxGeometry x="490" y="475" width="20" height="20" as="geometry" />
        </mxCell>
        <mxCell id="34jZ-r2ggN83q7WSebQB-53" value="" style="ellipse;whiteSpace=wrap;html=1;aspect=fixed;" vertex="1" parent="34jZ-r2ggN83q7WSebQB-52">
          <mxGeometry width="20" height="20" as="geometry" />
        </mxCell>
        <mxCell id="34jZ-r2ggN83q7WSebQB-54" value="" style="endArrow=none;html=1;rounded=0;entryX=1;entryY=1;entryDx=0;entryDy=0;exitX=0;exitY=0;exitDx=0;exitDy=0;" edge="1" parent="34jZ-r2ggN83q7WSebQB-52" source="34jZ-r2ggN83q7WSebQB-53" target="34jZ-r2ggN83q7WSebQB-53">
          <mxGeometry width="50" height="50" relative="1" as="geometry">
            <mxPoint x="-19.99000000000001" as="sourcePoint" />
            <mxPoint x="30.00999999999999" y="-50" as="targetPoint" />
          </mxGeometry>
        </mxCell>
        <mxCell id="34jZ-r2ggN83q7WSebQB-55" value="" style="endArrow=none;html=1;rounded=0;entryX=0;entryY=1;entryDx=0;entryDy=0;exitX=1;exitY=0;exitDx=0;exitDy=0;" edge="1" parent="34jZ-r2ggN83q7WSebQB-52" source="34jZ-r2ggN83q7WSebQB-53" target="34jZ-r2ggN83q7WSebQB-53">
          <mxGeometry width="50" height="50" relative="1" as="geometry">
            <mxPoint x="-10" y="-10" as="sourcePoint" />
            <mxPoint x="29.99000000000001" y="-10" as="targetPoint" />
          </mxGeometry>
        </mxCell>
        <mxCell id="34jZ-r2ggN83q7WSebQB-61" style="edgeStyle=orthogonalEdgeStyle;rounded=0;orthogonalLoop=1;jettySize=auto;html=1;exitX=1;exitY=0.5;exitDx=0;exitDy=0;entryX=0;entryY=0.5;entryDx=0;entryDy=0;" edge="1" parent="1" source="34jZ-r2ggN83q7WSebQB-53" target="34jZ-r2ggN83q7WSebQB-36">
          <mxGeometry relative="1" as="geometry" />
        </mxCell>
        <mxCell id="34jZ-r2ggN83q7WSebQB-62" style="edgeStyle=orthogonalEdgeStyle;rounded=0;orthogonalLoop=1;jettySize=auto;html=1;exitX=0.5;exitY=1;exitDx=0;exitDy=0;entryX=1;entryY=0.5;entryDx=0;entryDy=0;" edge="1" parent="1" source="34jZ-r2ggN83q7WSebQB-42" target="34jZ-r2ggN83q7WSebQB-37">
          <mxGeometry relative="1" as="geometry">
            <Array as="points">
              <mxPoint x="700" y="495" />
              <mxPoint x="700" y="565" />
            </Array>
          </mxGeometry>
        </mxCell>
        <mxCell id="34jZ-r2ggN83q7WSebQB-70" style="edgeStyle=orthogonalEdgeStyle;rounded=0;orthogonalLoop=1;jettySize=auto;html=1;exitX=0;exitY=0.5;exitDx=0;exitDy=0;entryX=1;entryY=0.5;entryDx=0;entryDy=0;" edge="1" parent="1" source="34jZ-r2ggN83q7WSebQB-64" target="34jZ-r2ggN83q7WSebQB-39">
          <mxGeometry relative="1" as="geometry" />
        </mxCell>
        <mxCell id="34jZ-r2ggN83q7WSebQB-64" value="HPF" style="rounded=0;whiteSpace=wrap;html=1;fontSize=12;" vertex="1" parent="1">
          <mxGeometry x="393.75" y="570" width="52.5" height="40" as="geometry" />
        </mxCell>
        <mxCell id="34jZ-r2ggN83q7WSebQB-66" value="" style="shape=waypoint;sketch=0;fillStyle=solid;size=6;pointerEvents=1;points=[];fillColor=none;resizable=0;rotatable=0;perimeter=centerPerimeter;snapToPoint=1;" vertex="1" parent="1">
          <mxGeometry x="690" y="535" width="20" height="20" as="geometry" />
        </mxCell>
        <mxCell id="34jZ-r2ggN83q7WSebQB-67" value="" style="edgeStyle=orthogonalEdgeStyle;rounded=0;orthogonalLoop=1;jettySize=auto;html=1;entryX=1;entryY=0.5;entryDx=0;entryDy=0;" edge="1" parent="1" target="34jZ-r2ggN83q7WSebQB-32">
          <mxGeometry relative="1" as="geometry">
            <mxPoint x="700" y="550" as="sourcePoint" />
            <mxPoint x="390" y="599.99" as="targetPoint" />
            <Array as="points">
              <mxPoint x="700" y="540" />
              <mxPoint x="700" y="600" />
            </Array>
          </mxGeometry>
        </mxCell>
        <mxCell id="34jZ-r2ggN83q7WSebQB-69" style="edgeStyle=orthogonalEdgeStyle;rounded=0;orthogonalLoop=1;jettySize=auto;html=1;exitX=0;exitY=0.5;exitDx=0;exitDy=0;entryX=1;entryY=0.5;entryDx=0;entryDy=0;" edge="1" parent="1" source="34jZ-r2ggN83q7WSebQB-32" target="34jZ-r2ggN83q7WSebQB-64">
          <mxGeometry relative="1" as="geometry" />
        </mxCell>
        <mxCell id="34jZ-r2ggN83q7WSebQB-32" value="LPF" style="rounded=0;whiteSpace=wrap;html=1;fontSize=12;" vertex="1" parent="1">
          <mxGeometry x="515" y="570" width="65" height="40" as="geometry" />
        </mxCell>
        <mxCell id="34jZ-r2ggN83q7WSebQB-80" style="edgeStyle=orthogonalEdgeStyle;rounded=0;orthogonalLoop=1;jettySize=auto;html=1;exitX=0;exitY=0.5;exitDx=0;exitDy=0;entryX=1;entryY=0.5;entryDx=0;entryDy=0;" edge="1" parent="1" source="34jZ-r2ggN83q7WSebQB-71" target="34jZ-r2ggN83q7WSebQB-72">
          <mxGeometry relative="1" as="geometry" />
        </mxCell>
        <mxCell id="34jZ-r2ggN83q7WSebQB-71" value="HPF" style="rounded=0;whiteSpace=wrap;html=1;fontSize=12;" vertex="1" parent="1">
          <mxGeometry x="272.5" y="507.5" width="50" height="35" as="geometry" />
        </mxCell>
        <mxCell id="34jZ-r2ggN83q7WSebQB-79" style="edgeStyle=orthogonalEdgeStyle;rounded=0;orthogonalLoop=1;jettySize=auto;html=1;exitX=0;exitY=0.5;exitDx=0;exitDy=0;" edge="1" parent="1" source="34jZ-r2ggN83q7WSebQB-72" target="34jZ-r2ggN83q7WSebQB-75">
          <mxGeometry relative="1" as="geometry" />
        </mxCell>
        <mxCell id="34jZ-r2ggN83q7WSebQB-72" value="\[{K_d}\]" style="rounded=0;whiteSpace=wrap;html=1;fontSize=12;" vertex="1" parent="1">
          <mxGeometry x="210" y="505" width="40" height="40" as="geometry" />
        </mxCell>
        <mxCell id="34jZ-r2ggN83q7WSebQB-74" value="" style="group" vertex="1" connectable="0" parent="1">
          <mxGeometry x="150" y="515" width="20" height="20" as="geometry" />
        </mxCell>
        <mxCell id="34jZ-r2ggN83q7WSebQB-75" value="" style="ellipse;whiteSpace=wrap;html=1;aspect=fixed;" vertex="1" parent="34jZ-r2ggN83q7WSebQB-74">
          <mxGeometry width="20" height="20" as="geometry" />
        </mxCell>
        <mxCell id="34jZ-r2ggN83q7WSebQB-76" value="" style="endArrow=none;html=1;rounded=0;entryX=1;entryY=1;entryDx=0;entryDy=0;exitX=0;exitY=0;exitDx=0;exitDy=0;" edge="1" parent="34jZ-r2ggN83q7WSebQB-74" source="34jZ-r2ggN83q7WSebQB-75" target="34jZ-r2ggN83q7WSebQB-75">
          <mxGeometry width="50" height="50" relative="1" as="geometry">
            <mxPoint x="-19.99000000000001" as="sourcePoint" />
            <mxPoint x="30.00999999999999" y="-50" as="targetPoint" />
          </mxGeometry>
        </mxCell>
        <mxCell id="34jZ-r2ggN83q7WSebQB-77" value="" style="endArrow=none;html=1;rounded=0;entryX=0;entryY=1;entryDx=0;entryDy=0;exitX=1;exitY=0;exitDx=0;exitDy=0;" edge="1" parent="34jZ-r2ggN83q7WSebQB-74" source="34jZ-r2ggN83q7WSebQB-75" target="34jZ-r2ggN83q7WSebQB-75">
          <mxGeometry width="50" height="50" relative="1" as="geometry">
            <mxPoint x="-10" y="-10" as="sourcePoint" />
            <mxPoint x="29.99000000000001" y="-10" as="targetPoint" />
          </mxGeometry>
        </mxCell>
        <mxCell id="34jZ-r2ggN83q7WSebQB-81" style="edgeStyle=orthogonalEdgeStyle;rounded=0;orthogonalLoop=1;jettySize=auto;html=1;entryX=1;entryY=0.5;entryDx=0;entryDy=0;" edge="1" parent="1" source="34jZ-r2ggN83q7WSebQB-82" target="34jZ-r2ggN83q7WSebQB-71">
          <mxGeometry relative="1" as="geometry">
            <mxPoint x="360" y="620" as="sourcePoint" />
            <Array as="points">
              <mxPoint x="360" y="525" />
            </Array>
          </mxGeometry>
        </mxCell>
        <mxCell id="34jZ-r2ggN83q7WSebQB-82" value="" style="shape=waypoint;sketch=0;fillStyle=solid;size=6;pointerEvents=1;points=[];fillColor=none;resizable=0;rotatable=0;perimeter=centerPerimeter;snapToPoint=1;" vertex="1" parent="1">
          <mxGeometry x="350" y="580" width="20" height="20" as="geometry" />
        </mxCell>
        <mxCell id="34jZ-r2ggN83q7WSebQB-98" style="edgeStyle=orthogonalEdgeStyle;rounded=0;orthogonalLoop=1;jettySize=auto;html=1;exitX=1;exitY=0.5;exitDx=0;exitDy=0;" edge="1" parent="1" source="34jZ-r2ggN83q7WSebQB-83" target="34jZ-r2ggN83q7WSebQB-33">
          <mxGeometry relative="1" as="geometry" />
        </mxCell>
        <mxCell id="34jZ-r2ggN83q7WSebQB-83" value="PI" style="rounded=0;whiteSpace=wrap;html=1;fontSize=12;" vertex="1" parent="1">
          <mxGeometry x="210" y="360" width="72.5" height="30" as="geometry" />
        </mxCell>
        <mxCell id="34jZ-r2ggN83q7WSebQB-85" value="+" style="text;html=1;align=center;verticalAlign=middle;whiteSpace=wrap;rounded=0;fontSize=20;" vertex="1" parent="1">
          <mxGeometry x="175.75" y="505" width="24.25" height="20" as="geometry" />
        </mxCell>
        <mxCell id="34jZ-r2ggN83q7WSebQB-86" value="+" style="text;html=1;align=center;verticalAlign=middle;whiteSpace=wrap;rounded=0;fontSize=20;" vertex="1" parent="1">
          <mxGeometry x="140" y="550" width="24.25" height="20" as="geometry" />
        </mxCell>
        <mxCell id="34jZ-r2ggN83q7WSebQB-89" value="" style="group" vertex="1" connectable="0" parent="1">
          <mxGeometry x="150" y="440" width="20" height="20" as="geometry" />
        </mxCell>
        <mxCell id="34jZ-r2ggN83q7WSebQB-90" value="" style="ellipse;whiteSpace=wrap;html=1;aspect=fixed;" vertex="1" parent="34jZ-r2ggN83q7WSebQB-89">
          <mxGeometry width="20" height="20" as="geometry" />
        </mxCell>
        <mxCell id="34jZ-r2ggN83q7WSebQB-91" value="" style="endArrow=none;html=1;rounded=0;entryX=1;entryY=1;entryDx=0;entryDy=0;exitX=0;exitY=0;exitDx=0;exitDy=0;" edge="1" parent="34jZ-r2ggN83q7WSebQB-89" source="34jZ-r2ggN83q7WSebQB-90" target="34jZ-r2ggN83q7WSebQB-90">
          <mxGeometry width="50" height="50" relative="1" as="geometry">
            <mxPoint x="-19.99000000000001" as="sourcePoint" />
            <mxPoint x="30.00999999999999" y="-50" as="targetPoint" />
          </mxGeometry>
        </mxCell>
        <mxCell id="34jZ-r2ggN83q7WSebQB-92" value="" style="endArrow=none;html=1;rounded=0;entryX=0;entryY=1;entryDx=0;entryDy=0;exitX=1;exitY=0;exitDx=0;exitDy=0;" edge="1" parent="34jZ-r2ggN83q7WSebQB-89" source="34jZ-r2ggN83q7WSebQB-90" target="34jZ-r2ggN83q7WSebQB-90">
          <mxGeometry width="50" height="50" relative="1" as="geometry">
            <mxPoint x="-10" y="-10" as="sourcePoint" />
            <mxPoint x="29.99000000000001" y="-10" as="targetPoint" />
          </mxGeometry>
        </mxCell>
        <mxCell id="34jZ-r2ggN83q7WSebQB-93" style="edgeStyle=orthogonalEdgeStyle;rounded=0;orthogonalLoop=1;jettySize=auto;html=1;exitX=0.5;exitY=0;exitDx=0;exitDy=0;entryX=0.5;entryY=1;entryDx=0;entryDy=0;" edge="1" parent="1" source="34jZ-r2ggN83q7WSebQB-75" target="34jZ-r2ggN83q7WSebQB-90">
          <mxGeometry relative="1" as="geometry" />
        </mxCell>
        <mxCell id="34jZ-r2ggN83q7WSebQB-94" value="" style="endArrow=classic;html=1;rounded=0;entryX=1;entryY=0.5;entryDx=0;entryDy=0;" edge="1" parent="1" target="34jZ-r2ggN83q7WSebQB-90">
          <mxGeometry width="50" height="50" relative="1" as="geometry">
            <mxPoint x="240" y="450" as="sourcePoint" />
            <mxPoint x="290" y="470" as="targetPoint" />
          </mxGeometry>
        </mxCell>
        <mxCell id="34jZ-r2ggN83q7WSebQB-95" style="edgeStyle=orthogonalEdgeStyle;rounded=0;orthogonalLoop=1;jettySize=auto;html=1;exitX=0.5;exitY=0;exitDx=0;exitDy=0;entryX=0.5;entryY=1;entryDx=0;entryDy=0;" edge="1" parent="1" source="34jZ-r2ggN83q7WSebQB-90" target="34jZ-r2ggN83q7WSebQB-29">
          <mxGeometry relative="1" as="geometry" />
        </mxCell>
        <mxCell id="34jZ-r2ggN83q7WSebQB-96" value="" style="endArrow=classic;html=1;rounded=0;entryX=0;entryY=0.5;entryDx=0;entryDy=0;" edge="1" parent="1" target="34jZ-r2ggN83q7WSebQB-29">
          <mxGeometry width="50" height="50" relative="1" as="geometry">
            <mxPoint x="30" y="375" as="sourcePoint" />
            <mxPoint x="140" y="385" as="targetPoint" />
          </mxGeometry>
        </mxCell>
        <mxCell id="34jZ-r2ggN83q7WSebQB-97" style="edgeStyle=orthogonalEdgeStyle;rounded=0;orthogonalLoop=1;jettySize=auto;html=1;exitX=1;exitY=0.5;exitDx=0;exitDy=0;entryX=0;entryY=0.5;entryDx=0;entryDy=0;" edge="1" parent="1" source="34jZ-r2ggN83q7WSebQB-29" target="34jZ-r2ggN83q7WSebQB-83">
          <mxGeometry relative="1" as="geometry" />
        </mxCell>
        <mxCell id="34jZ-r2ggN83q7WSebQB-99" value="-" style="text;html=1;align=center;verticalAlign=middle;whiteSpace=wrap;rounded=0;fontSize=20;" vertex="1" parent="1">
          <mxGeometry x="140" y="390" width="24.25" height="20" as="geometry" />
        </mxCell>
        <mxCell id="34jZ-r2ggN83q7WSebQB-100" value="SpdFBCx" style="text;html=1;align=center;verticalAlign=middle;whiteSpace=wrap;rounded=0;fontSize=12;" vertex="1" parent="1">
          <mxGeometry x="212.5" y="420" width="70" height="30" as="geometry" />
        </mxCell>
        <mxCell id="34jZ-r2ggN83q7WSebQB-101" value="+" style="text;html=1;align=center;verticalAlign=middle;whiteSpace=wrap;rounded=0;fontSize=20;" vertex="1" parent="1">
          <mxGeometry x="175.75" y="430" width="24.25" height="20" as="geometry" />
        </mxCell>
        <mxCell id="34jZ-r2ggN83q7WSebQB-102" value="-" style="text;html=1;align=center;verticalAlign=middle;whiteSpace=wrap;rounded=0;fontSize=20;" vertex="1" parent="1">
          <mxGeometry x="160" y="470" width="24.25" height="20" as="geometry" />
        </mxCell>
        <mxCell id="34jZ-r2ggN83q7WSebQB-103" value="+" style="text;html=1;align=center;verticalAlign=middle;whiteSpace=wrap;rounded=0;fontSize=20;" vertex="1" parent="1">
          <mxGeometry x="480" y="450" width="24.25" height="20" as="geometry" />
        </mxCell>
        <mxCell id="34jZ-r2ggN83q7WSebQB-104" value="+" style="text;html=1;align=center;verticalAlign=middle;whiteSpace=wrap;rounded=0;fontSize=20;" vertex="1" parent="1">
          <mxGeometry x="480" y="505" width="24.25" height="20" as="geometry" />
        </mxCell>
        <mxCell id="34jZ-r2ggN83q7WSebQB-105" value="+" style="text;html=1;align=center;verticalAlign=middle;whiteSpace=wrap;rounded=0;fontSize=20;" vertex="1" parent="1">
          <mxGeometry x="700.75" y="450" width="24.25" height="20" as="geometry" />
        </mxCell>
        <mxCell id="34jZ-r2ggN83q7WSebQB-106" value="-" style="text;html=1;align=center;verticalAlign=middle;whiteSpace=wrap;rounded=0;fontSize=20;" vertex="1" parent="1">
          <mxGeometry x="660" y="466" width="24.25" height="20" as="geometry" />
        </mxCell>
      </root>
    </mxGraphModel>
  </diagram>
</mxfile>
